<svg id="visual" viewBox="0 0 900 600" width="900" height="600" xmlns="http://www.w3.org/2000/svg" xmlns:xlink="http://www.w3.org/1999/xlink" version="1.1"><rect x="0" y="0" width="900" height="600" fill="#fff"></rect><path d="M0 301L21.5 290.2C43 279.3 86 257.7 128.8 241.7C171.7 225.7 214.3 215.3 257.2 206.7C300 198 343 191 385.8 195.3C428.7 199.7 471.3 215.3 514.2 241.5C557 267.7 600 304.3 642.8 314.5C685.7 324.7 728.3 308.3 771.2 280C814 251.7 857 211.3 878.5 191.2L900 171L900 601L878.5 601C857 601 814 601 771.2 601C728.3 601 685.7 601 642.8 601C600 601 557 601 514.2 601C471.3 601 428.7 601 385.8 601C343 601 300 601 257.2 601C214.3 601 171.7 601 128.8 601C86 601 43 601 21.5 601L0 601Z" fill="#3e3975"></path><path d="M0 213L21.5 214.7C43 216.3 86 219.7 128.8 251.7C171.7 283.7 214.3 344.3 257.2 362.7C300 381 343 357 385.8 346.7C428.7 336.3 471.3 339.7 514.2 351.5C557 363.3 600 383.7 642.8 385.8C685.7 388 728.3 372 771.2 355.2C814 338.3 857 320.7 878.5 311.8L900 303L900 601L878.5 601C857 601 814 601 771.2 601C728.3 601 685.7 601 642.8 601C600 601 557 601 514.2 601C471.3 601 428.7 601 385.8 601C343 601 300 601 257.2 601C214.3 601 171.7 601 128.8 601C86 601 43 601 21.5 601L0 601Z" fill="#3b3671"></path><path d="M0 346L21.5 351C43 356 86 366 128.8 365.3C171.7 364.7 214.3 353.3 257.2 349.7C300 346 343 350 385.8 362.5C428.7 375 471.3 396 514.2 404.5C557 413 600 409 642.8 406.7C685.7 404.3 728.3 403.7 771.2 399.3C814 395 857 387 878.5 383L900 379L900 601L878.5 601C857 601 814 601 771.2 601C728.3 601 685.7 601 642.8 601C600 601 557 601 514.2 601C471.3 601 428.7 601 385.8 601C343 601 300 601 257.2 601C214.3 601 171.7 601 128.8 601C86 601 43 601 21.5 601L0 601Z" fill="#38346e"></path><path d="M0 381L21.5 394.2C43 407.3 86 433.7 128.8 435.8C171.7 438 214.3 416 257.2 411C300 406 343 418 385.8 425C428.7 432 471.3 434 514.2 432C557 430 600 424 642.8 424.7C685.7 425.3 728.3 432.7 771.2 438C814 443.3 857 446.7 878.5 448.3L900 450L900 601L878.5 601C857 601 814 601 771.2 601C728.3 601 685.7 601 642.8 601C600 601 557 601 514.2 601C471.3 601 428.7 601 385.8 601C343 601 300 601 257.2 601C214.3 601 171.7 601 128.8 601C86 601 43 601 21.5 601L0 601Z" fill="#35316a"></path><path d="M0 535L21.5 526.2C43 517.3 86 499.7 128.8 493.8C171.7 488 214.3 494 257.2 499.8C300 505.7 343 511.3 385.8 504.3C428.7 497.3 471.3 477.7 514.2 482.7C557 487.7 600 517.3 642.8 523C685.7 528.7 728.3 510.3 771.2 496.7C814 483 857 474 878.5 469.5L900 465L900 601L878.5 601C857 601 814 601 771.2 601C728.3 601 685.7 601 642.8 601C600 601 557 601 514.2 601C471.3 601 428.7 601 385.8 601C343 601 300 601 257.2 601C214.3 601 171.7 601 128.8 601C86 601 43 601 21.5 601L0 601Z" fill="#332f67"></path></svg>