<svg xmlns:xlink="http://www.w3.org/1999/xlink" xmlns="http://www.w3.org/2000/svg" width="858.65" height="148.85172766372546" viewBox="0 0 369.7457627118644 64.09747344785757" class="looka-1j8o68f"><defs id="SvgjsDefs1001"></defs><g id="SvgjsG1007" featurekey="v37d4h-0" transform="matrix(0.3516838544662849,0,0,0.3516838544662849,-28.507495067568772,-29.408244910518963)" fill="#FE904D"><g xmlns="http://www.w3.org/2000/svg" fill="#FE904D"><path d="M236.53 112.52a.11.11 0 0 0 0-.15l-.01-.01a.15.13-42.1 0 0-.2 0q-13.72 12.42-23.78 24.43-17.1 20.41-29.73 41.26-3.72 6.15-6.72 13.14a.4.39 46.3 0 1-.73-.02q-1.58-4.2-1.74-8.07c-.37-9.05-.3-18.71 5.09-26.06 1.94-2.64 3.75-6.39 6.3-9.86q10.69-14.56 23.73-25.58a.96.96 0 0 1 1.58.73l.02 3.72a.45.45 0 0 0 .89.06q.94-6.84 6.25-11.39 21.48-18.42 48.79-27.25a.26.25 10.2 0 1 .28.4q-8.27 10.62-14.55 20.64-4.41 7.03-7.31 13.95a2.6 2.57-.1 0 1-1.41 1.4l-7.71 3.14a.34.34 0 0 0 .13.65l4.19-.02a.78.78 0 0 1 .7 1.14c-1.78 3.44-5.04 8.34-7.23 12.78q-7.93 16.01-9.79 19.26-1.29 2.26-4.39 3.88-6.46 3.38-13.18 6.07a.15.15 0 0 0 .06.29l10.31-.06a.25.25 0 0 1 .2.4q-6.8 9.44-16.24 15.71-6.67 4.44-15.47 9.24-3.06 1.68-4.78 4.89a.93.92-71.2 0 0 .66 1.35l5.92.99a1.01 1.01 0 0 1 .41 1.82c-9.49 6.61-16.06 16.93-20.17 27.48a.41.41 0 0 1-.78-.07c-.84-3.84-.58-7.29.9-11.44q4.66-13.08 9.05-20.82 12.11-21.34 13.99-24.8 4.38-8.09 9.08-14.92c3.04-4.4 8.1-13.05 12.98-19.36q11.61-15 24.41-28.94" fill="#004AAC"></path><path d="M172.41 265.88c-6.73-.01-11.99-2.46-15.71-7.95a.61.61 0 0 0-.5-.26H81.65a.6.59-90 0 1-.59-.6V143.72a.8.8 0 0 1 .8-.8h10.31a.56.56 0 0 1 .56.56v98.3a.47.47 0 0 0 .5.47q12.26-.82 25.24.57c18.27 1.96 33.58 5.56 49.2 13.98q2.42 1.31 4.75 1.31 2.32 0 4.75-1.31c15.62-8.4 30.94-11.99 49.21-13.93q12.98-1.38 25.24-.54a.47.47 0 0 0 .5-.47l.09-98.3a.56.56 0 0 1 .56-.56l10.31.01a.8.8 0 0 1 .8.8l-.11 113.35a.6.59-89.9 0 1-.59.6l-74.55-.07a.61.61 0 0 0-.5.26c-3.72 5.48-8.99 7.93-15.72 7.93" fill="#004AAC"></path></g><g xmlns="http://www.w3.org/2000/svg" fill="#FE904D"><path d="M166.69 210.02a.2.19-32.4 0 1-.37-.08l-.54-94.9a.7.69 85 0 0-.8-.68c-5.65.92-13.71 2.6-14.42 2.22a.58.58 0 0 1-.21-.84l21.41-31.69a.97.96-43.5 0 1 1.63.04q1.21 2.02 21.14 31.78.25.37.23.62a.7.69 8.6 0 1-.8.58l-13.64-2.28a.54.54 0 0 0-.63.51q-.64 17.42-.39 27.69c.13 5.46-.77 8.86-3.75 12.55q-2.19 2.7-2.96 4.44c-4.85 10.94-4.02 24.81.09 36.02a2.19 2.17-42.3 0 1-.09 1.71z" fill="#FE904D"></path><path d="M170.29 253.4q-7.13-4.13-15.07-7.15-11.83-4.51-15.75-5.56c-13.68-3.68-27.29-4.5-40.94-4.2a.58.58 0 0 1-.59-.58V130.26a.36.36 0 0 1 .34-.36q22.69-1.44 44.16 4.62 2.62.74 16.67 6.75a2.8 2.8 0 0 1 1.69 2.57l.01 7.23a.9.9 0 0 1-1.34.79c-15.45-8.55-33.26-12.15-50.75-12.59a.94.94 0 0 0-.97.94v85.01a1.07 1.06-1.5 0 0 1.13 1.06q5.17-.31 12.12.77 14.55 2.25 28.19 8.52c8.28 3.8 15.36 10.62 21.27 17.63a.13.13 0 0 1-.17.2M175.3 253.19a.35.35 0 0 1-.42-.55c7.88-8.87 16.46-16.27 27.98-20.12q17.15-5.74 33.52-6.27a.59.59 0 0 0 .58-.59v-81.59a5.18 5.15 58 0 1 .51-2.24l4.88-10.19a1.24 1.23 8.3 0 1 .92-.68q1.4-.22 3.04.15a.87.86-85.6 0 1 .67.79q.28 4.89.26 5.11-.88 12.44-.55 22.28.27 8.01.22 21.92-.07 23.37.12 39.56c.07 5.19-.35 9.92-.41 14.88a.51.5-88.9 0 1-.51.5c-10.75-.21-23.5.48-34.36 3.27q-13.63 3.49-26.04 8.38c-3.41 1.35-7.42 3.86-10.41 5.39" fill="#FE904D"></path></g></g><g id="SvgjsG1008" featurekey="UxBHKT-0" transform="matrix(2.722234666316086,0,0,2.722234666316086,83.58443802543815,-3.2789646545553417)" fill="#004AAC"><path d="M0.52 20 l0 -0.54 c0.68 -0.74 1.04 -1.66 1.04 -2.58 l0 -7.7 c0 -0.96 -0.36 -1.92 -1.04 -2.6 l0 -0.58 l3.2 0 l0 8.22 l3.7 -2.9 l-0.14 -0.64 l0 -0.34 l3 0 l0 0.34 l-1.54 0.64 l-3.6 2.86 l1.02 -0.04 l3.82 4.18 c0.04 0.06 0.24 0.2 0.34 0.26 l1.4 0.88 l0 0.54 l-4.24 0 l0 -0.54 c0.5 -0.34 0.64 -1.06 0.26 -1.52 l-2.88 -3.54 l-1.14 0.9 l0 1.6 c0 0.94 0.34 1.82 1.02 2.56 l0 0.54 l-4.22 0 z M13.24 16.48 l0 -5.32 l-1.48 0 l0 -0.82 l1.48 0 l0 -3.32 l2.18 -1.04 l0 4.36 l1.44 0 l0 0.82 l-1.44 0 l0 5.2 c0 0.78 0.3 1.46 0.68 1.96 c0.22 0.3 0.48 0.52 0.76 0.68 l0 1.1 c-0.46 -0.02 -0.94 -0.12 -1.44 -0.32 c-1.16 -0.48 -2.18 -1.46 -2.18 -3.3 z M18.44 20.1 c-0.4 0 -0.64 -0.3 -0.64 -0.68 c0 -0.34 0.24 -0.62 0.64 -0.62 c0.36 0 0.64 0.28 0.64 0.62 c0 0.38 -0.28 0.68 -0.64 0.68 z M20.6 20.02 l0 -10.8 c0 -0.98 -0.38 -1.92 -1.04 -2.64 l0 -0.58 l3.2 0 l0 5.12 c0.78 -0.5 1.76 -0.84 2.78 -0.84 c3.2 0 5.2 2.18 5.2 4.9 c0 2.68 -2.46 4.84 -5.2 4.84 c-0.54 0 -1.02 -0.06 -1.5 -0.22 c-1.14 -0.4 -2.38 -0.26 -3.44 0.22 z M22.76 15.84 c0.68 2.24 2.36 3.74 4.02 3.36 c1.62 -0.38 2.42 -2.48 1.74 -4.72 c-0.68 -2.2 -2.52 -3.66 -4.18 -3.3 c-1.64 0.36 -2.26 2.46 -1.58 4.66 z M39.86 19.56 c-0.78 0.36 -1.64 0.54 -2.54 0.54 c-2.76 0 -5.22 -1.92 -5.22 -4.92 c0 -3.04 2.46 -4.96 5.22 -4.96 c0.9 0 1.76 0.2 2.54 0.56 c0.74 -0.36 1.58 -0.56 2.48 -0.56 c2.8 0 5.32 1.82 5.32 4.96 c0 3.08 -2.52 4.92 -5.32 4.92 c-0.9 0 -1.74 -0.18 -2.48 -0.54 z M40.6 11.2 c1.24 0.84 2.06 2.2 2.06 3.98 c0 1.46 -0.58 2.64 -1.46 3.48 c0.6 0.5 1.26 0.78 1.9 0.78 c1.6 0 2.38 -1.66 2.38 -3.18 c0 -2.9 -2.08 -5.3 -3.86 -5.3 c-0.34 0 -0.72 0.08 -1.02 0.24 z M39.18 19.16 c-1.24 -0.86 -2.06 -2.22 -2.06 -3.98 c0 -1.42 0.52 -2.6 1.38 -3.44 c-0.6 -0.5 -1.26 -0.78 -1.92 -0.78 c-1.46 0 -2.24 1.28 -2.24 2.94 c0 2.96 2 5.54 3.78 5.54 c0.36 0 0.72 -0.1 1.06 -0.28 z M39.36 12.72 c-0.16 0.44 -0.26 0.94 -0.26 1.46 c0 1.2 0.48 2.54 1.18 3.48 c0.14 -0.42 0.2 -0.88 0.2 -1.4 c0 -1.24 -0.4 -2.44 -1.12 -3.54 z M48.86 20 l0 -0.54 c0.68 -0.74 1.04 -1.66 1.04 -2.58 l0 -7.7 c0 -0.96 -0.36 -1.92 -1.04 -2.6 l0 -0.58 l3.2 0 l0 8.22 l3.7 -2.9 l-0.14 -0.64 l0 -0.34 l3 0 l0 0.34 l-1.54 0.64 l-3.6 2.86 l1.02 -0.04 l3.82 4.18 c0.04 0.06 0.24 0.2 0.34 0.26 l1.4 0.88 l0 0.54 l-4.24 0 l0 -0.54 c0.5 -0.34 0.64 -1.06 0.26 -1.52 l-2.88 -3.54 l-1.14 0.9 l0 1.6 c0 0.94 0.34 1.82 1.02 2.56 l0 0.54 l-4.22 0 z M61.06 19.18 l0 -1.42 l0.66 0 l0.78 0.84 c0.52 0.56 1.14 0.78 2.02 0.76 c0.8 0 2.02 -0.3 2.02 -1.04 c0 -0.94 -1.82 -2.08 -2.9 -2.72 c-0.94 -0.54 -2.58 -1.48 -2.58 -2.62 c0 -2.18 2.54 -2.72 3.28 -2.72 c0.94 0 1.88 0.22 2.88 0.68 l0 1.38 l-0.72 0 l-0.58 -0.66 c-0.42 -0.48 -1.02 -0.8 -1.68 -0.78 c-0.6 0 -1.72 0.46 -1.72 1.16 c0 0.82 1.94 1.44 3.96 2.82 c1.22 0.82 1.78 1.84 1.78 2.76 c0 1.32 -1.12 2.44 -3.04 2.44 c-2.5 0 -4.16 -0.88 -4.16 -0.88 z M70.4 16.48 l0 -5.32 l-1.48 0 l0 -0.82 l1.48 0 l0 -3.32 l2.18 -1.04 l0 4.36 l1.44 0 l0 0.82 l-1.44 0 l0 5.2 c0 0.78 0.3 1.46 0.68 1.96 c0.22 0.3 0.48 0.52 0.76 0.68 l0 1.1 c-0.46 -0.02 -0.94 -0.12 -1.44 -0.32 c-1.16 -0.48 -2.18 -1.46 -2.18 -3.3 z M75.26 15.22 c0 -3.02 2.44 -4.96 5.22 -4.96 c2.82 0 5.32 1.88 5.32 4.96 c0 3.1 -2.5 4.96 -5.32 4.96 c-2.78 0 -5.22 -1.92 -5.22 -4.96 z M77.82 15.88 c0.68 2.32 2.34 3.94 3.96 3.56 c1.58 -0.38 2.32 -2.54 1.6 -4.88 c-0.68 -2.28 -2.5 -3.86 -4.14 -3.5 c-1.58 0.36 -2.12 2.48 -1.42 4.82 z M87.1 20 l0 -0.5 c0.68 -0.74 1.02 -1.66 1.02 -2.66 l0 -3.3 c0 -0.98 -0.34 -1.92 -1.02 -2.62 l0 -0.58 l3.22 0 l0 1.04 c0.62 -0.62 1.8 -1.1 2.62 -1.1 c0.86 0 1.46 0.32 1.46 0.32 l-0.42 1.82 s-0.9 -0.74 -2 -0.74 c-1.46 0 -1.66 0.98 -1.66 1.24 l0 3.92 c0 1 0.38 1.92 1.02 2.66 l0 0.5 l-4.24 0 z M103.32 16.94 l1.48 0 c-0.7 1.9 -2.54 3.26 -4.76 3.26 c-2.82 0 -5.06 -2.26 -5.06 -4.98 c0 -2.78 2.24 -5.04 5.06 -5.04 c2.78 0 5.04 2.2 5.08 4.94 l-8.12 0 c0.08 0.24 0.12 0.5 0.2 0.78 c0.64 2.2 2.16 3.78 3.7 3.78 c1.44 0 2.22 -1.36 2.42 -2.74 z M96.9 14.3 l6.14 0 c-0.68 -2.08 -2.28 -3.4 -3.78 -3.4 c-1.52 0 -2.38 1.46 -2.38 2.96 c0 0.14 0 0.3 0.02 0.44 z" fill="#004AAC"></path></g></svg>