<svg id="visual" viewBox="0 0 900 600" width="900" height="600" xmlns="http://www.w3.org/2000/svg" xmlns:xlink="http://www.w3.org/1999/xlink" version="1.1"><path d="M0 73L18.8 93C37.7 113 75.3 153 112.8 157C150.3 161 187.7 129 225.2 121C262.7 113 300.3 129 337.8 131C375.3 133 412.7 121 450.2 116C487.7 111 525.3 113 562.8 120C600.3 127 637.7 139 675.2 147C712.7 155 750.3 159 787.8 169C825.3 179 862.7 195 881.3 203L900 211L900 0L881.3 0C862.7 0 825.3 0 787.8 0C750.3 0 712.7 0 675.2 0C637.7 0 600.3 0 562.8 0C525.3 0 487.7 0 450.2 0C412.7 0 375.3 0 337.8 0C300.3 0 262.7 0 225.2 0C187.7 0 150.3 0 112.8 0C75.3 0 37.7 0 18.8 0L0 0Z" fill="#3e3975"></path><path d="M0 217L18.8 239C37.7 261 75.3 305 112.8 314C150.3 323 187.7 297 225.2 292C262.7 287 300.3 303 337.8 307C375.3 311 412.7 303 450.2 298C487.7 293 525.3 291 562.8 281C600.3 271 637.7 253 675.2 247C712.7 241 750.3 247 787.8 265C825.3 283 862.7 313 881.3 328L900 343L900 209L881.3 201C862.7 193 825.3 177 787.8 167C750.3 157 712.7 153 675.2 145C637.7 137 600.3 125 562.8 118C525.3 111 487.7 109 450.2 114C412.7 119 375.3 131 337.8 129C300.3 127 262.7 111 225.2 119C187.7 127 150.3 159 112.8 155C75.3 151 37.7 111 18.8 91L0 71Z" fill="#332f67"></path><path d="M0 313L18.8 330C37.7 347 75.3 381 112.8 385C150.3 389 187.7 363 225.2 356C262.7 349 300.3 361 337.8 367C375.3 373 412.7 373 450.2 367C487.7 361 525.3 349 562.8 341C600.3 333 637.7 329 675.2 329C712.7 329 750.3 333 787.8 343C825.3 353 862.7 369 881.3 377L900 385L900 341L881.3 326C862.7 311 825.3 281 787.8 263C750.3 245 712.7 239 675.2 245C637.7 251 600.3 269 562.8 279C525.3 289 487.7 291 450.2 296C412.7 301 375.3 309 337.8 305C300.3 301 262.7 285 225.2 290C187.7 295 150.3 321 112.8 312C75.3 303 37.7 259 18.8 237L0 215Z" fill="#292559"></path><path d="M0 391L18.8 401C37.7 411 75.3 431 112.8 433C150.3 435 187.7 419 225.2 413C262.7 407 300.3 411 337.8 412C375.3 413 412.7 411 450.2 407C487.7 403 525.3 397 562.8 393C600.3 389 637.7 387 675.2 387C712.7 387 750.3 389 787.8 393C825.3 397 862.7 403 881.3 406L900 409L900 383L881.3 375C862.7 367 825.3 351 787.8 341C750.3 331 712.7 327 675.2 327C637.7 327 600.3 331 562.8 339C525.3 347 487.7 359 450.2 365C412.7 371 375.3 371 337.8 365C300.3 359 262.7 347 225.2 354C187.7 361 150.3 387 112.8 383C75.3 379 37.7 345 18.8 328L0 311Z" fill="#1e1b4b"></path><path d="M0 421L18.8 432C37.7 443 75.3 465 112.8 472C150.3 479 187.7 471 225.2 470C262.7 469 300.3 475 337.8 474C375.3 473 412.7 465 450.2 459C487.7 453 525.3 449 562.8 446C600.3 443 637.7 441 675.2 442C712.7 443 750.3 447 787.8 447C825.3 447 862.7 443 881.3 441L900 439L900 407L881.3 404C862.7 401 825.3 395 787.8 391C750.3 387 712.7 385 675.2 385C637.7 385 600.3 387 562.8 391C525.3 395 487.7 401 450.2 405C412.7 409 375.3 411 337.8 410C300.3 409 262.7 405 225.2 411C187.7 417 150.3 433 112.8 431C75.3 429 37.7 409 18.8 399L0 389Z" fill="#1c1945"></path><path d="M0 499L18.8 507C37.7 515 75.3 531 112.8 534C150.3 537 187.7 527 225.2 529C262.7 531 300.3 545 337.8 549C375.3 553 412.7 547 450.2 541C487.7 535 525.3 529 562.8 523C600.3 517 637.7 511 675.2 506C712.7 501 750.3 497 787.8 502C825.3 507 862.7 521 881.3 528L900 535L900 437L881.3 439C862.7 441 825.3 445 787.8 445C750.3 445 712.7 441 675.2 440C637.7 439 600.3 441 562.8 444C525.3 447 487.7 451 450.2 457C412.7 463 375.3 471 337.8 472C300.3 473 262.7 467 225.2 468C187.7 469 150.3 477 112.8 470C75.3 463 37.7 441 18.8 430L0 419Z" fill="#19183e"></path><path d="M0 601L18.8 601C37.7 601 75.3 601 112.8 601C150.3 601 187.7 601 225.2 601C262.7 601 300.3 601 337.8 601C375.3 601 412.7 601 450.2 601C487.7 601 525.3 601 562.8 601C600.3 601 637.7 601 675.2 601C712.7 601 750.3 601 787.8 601C825.3 601 862.7 601 881.3 601L900 601L900 533L881.3 526C862.7 519 825.3 505 787.8 500C750.3 495 712.7 499 675.2 504C637.7 509 600.3 515 562.8 521C525.3 527 487.7 533 450.2 539C412.7 545 375.3 551 337.8 547C300.3 543 262.7 529 225.2 527C187.7 525 150.3 535 112.8 532C75.3 529 37.7 513 18.8 505L0 497Z" fill="#171638"></path></svg>